<?xml version="1.0" standalone="no"?>
<!DOCTYPE svg PUBLIC "-//W3C//DTD SVG 20010904//EN"
 "http://www.w3.org/TR/2001/REC-SVG-20010904/DTD/svg10.dtd">
<svg version="1.0" xmlns="http://www.w3.org/2000/svg"
 width="2048.000000pt" height="2048.000000pt" viewBox="0 0 2048.000000 2048.000000"
 preserveAspectRatio="xMidYMid meet">
<metadata>
Created by potrace 1.14, written by Peter Selinger 2001-2017
</metadata>
<g transform="translate(0.000000,2048.000000) scale(0.100000,-0.100000)"
fill="#000000" stroke="none">
<path d="M9730 20470 c-1464 -83 -2792 -431 -4065 -1067 -2044 -1021 -3695
-2706 -4681 -4775 -499 -1050 -819 -2201 -933 -3358 -40 -405 -46 -536 -45
-1045 0 -520 8 -689 55 -1115 304 -2795 1758 -5344 4023 -7054 1282 -968 2770
-1616 4361 -1900 847 -152 1799 -194 2665 -120 2418 206 4653 1246 6370 2964
798 797 1421 1663 1929 2680 497 997 813 2010 970 3115 73 512 96 852 96 1445
0 492 -7 634 -46 1030 -230 2339 -1273 4535 -2949 6210 -1515 1515 -3441 2509
-5538 2859 -325 55 -610 89 -967 117 -236 18 -1014 27 -1245 14z m5414 -5814
c63 -31 109 -83 126 -145 34 -120 33 -320 -6 -606 -102 -767 -693 -3366 -1674
-7365 -155 -631 -172 -681 -269 -798 -128 -154 -324 -209 -545 -152 -114 29
-196 77 -352 208 -350 291 -1358 1025 -2098 1526 -66 45 -305 208 -531 363
-225 154 -594 405 -820 557 -225 152 -415 287 -422 299 -15 28 -16 69 -2 100
6 14 64 72 127 128 822 732 2059 1860 2702 2463 709 666 1402 1351 1604 1586
211 245 231 333 56 245 -327 -165 -2426 -1463 -5548 -3432 -315 -200 -422
-262 -455 -267 -37 -6 -191 42 -1316 409 -701 228 -1293 426 -1316 439 -136
80 -195 213 -156 355 16 55 90 136 184 198 325 216 3127 1286 8157 3115 514
187 1045 379 1180 428 135 49 402 145 594 214 397 143 487 167 626 163 82 -2
104 -7 154 -31z"/>
</g>
</svg>
